<?xml version="1.0" encoding="UTF-8" standalone="no"?>
<svg
   xmlns:dc="http://purl.org/dc/elements/1.1/"
   xmlns:cc="http://creativecommons.org/ns#"
   xmlns:rdf="http://www.w3.org/1999/02/22-rdf-syntax-ns#"
   xmlns:svg="http://www.w3.org/2000/svg"
   xmlns="http://www.w3.org/2000/svg"
   viewBox="0 0 309.33334 308"
   height="308"
   width="309.33334"
   xml:space="preserve"
   id="svg2"
   version="1.1"><metadata
     id="metadata8"><rdf:RDF><cc:Work
         rdf:about=""><dc:format>image/svg+xml</dc:format><dc:type
           rdf:resource="http://purl.org/dc/dcmitype/StillImage" /></cc:Work></rdf:RDF></metadata><defs
     id="defs6"><clipPath
       id="clipPath18"
       clipPathUnits="userSpaceOnUse"><path
         id="path16"
         d="M 0,0 H 960 V 540 H 0 Z" /></clipPath><clipPath
       id="clipPath22"
       clipPathUnits="userSpaceOnUse"><path
         style="clip-rule:evenodd"
         id="path20"
         d="M 0,1.2207e-4 H 960 V 540.00012 H 0 Z" /></clipPath><clipPath
       id="clipPath26"
       clipPathUnits="userSpaceOnUse"><path
         style="clip-rule:evenodd"
         id="path24"
         d="M -6.1035e-5,540 H 960 V 2.4414e-4 L 0,1.8311e-4" /></clipPath><clipPath
       id="clipPath30"
       clipPathUnits="userSpaceOnUse"><path
         style="clip-rule:evenodd"
         id="path28"
         d="M 0,540 H 960 V 1.8311e-4 H 6.1035e-5" /></clipPath></defs><g
     transform="matrix(1.3333333,0,0,-1.3333333,0,308)"
     id="g10"><g
       transform="translate(-336,-177)"
       id="g12"><g
         id="g14" /><g
         id="g62"><g
           id="g60"
           clip-path="url(#clipPath18)"><g
             id="g36"><g
               id="g34"
               clip-path="url(#clipPath22)"><path
                 id="path32"
                 style="fill:#ffffff;fill-opacity:1;fill-rule:evenodd;stroke:none"
                 d="M 0,6.1035e-5 H 960 V 540.00006 H 0 Z" /></g></g><path
             id="path38"
             style="fill:#960000;fill-opacity:1;fill-rule:evenodd;stroke:none"
             d="m 336.96,292.33 c 0,63.62 51.57,115.2 115.2,115.2 63.62,0 115.2,-51.58 115.2,-115.2 0,-63.62 -51.58,-115.2 -115.2,-115.2 -63.63,0 -115.2,51.58 -115.2,115.2 z" /><path
             id="path40"
             style="fill:#ffffff;fill-opacity:1;fill-rule:evenodd;stroke:none"
             d="m 365.6,241.93 h 24.48 v 100.8 H 365.6 Z" /><path
             id="path42"
             style="fill:#ffffff;fill-opacity:1;fill-rule:evenodd;stroke:none"
             d="m 444.29,241.93 h 24.48 v 100.8 h -24.48 z" /><path
             id="path44"
             style="fill:#ffffff;fill-opacity:1;fill-rule:evenodd;stroke:none"
             d="m 405.83,285.13 h 24.48 v 57.6 h -24.48 z" /><g
             id="g50"><g
               id="g48"
               clip-path="url(#clipPath26)"><path
                 id="path46"
                 style="fill:#ffffff;fill-opacity:1;fill-rule:evenodd;stroke:none"
                 d="m 484.03,318.25 h 57.6 v 24.48 h -57.6 z" /></g></g><path
             id="path52"
             style="fill:#ffffff;fill-opacity:1;fill-rule:evenodd;stroke:none"
             d="M 484.52,241.93 H 509 v 57.6 h -24.48 z" /><g
             id="g58"><g
               id="g56"
               clip-path="url(#clipPath30)"><path
                 id="path54"
                 style="fill:#ffffff;fill-opacity:1;fill-rule:evenodd;stroke:none"
                 d="m 484.53,281.89 h 57.6 v 22.255 h -57.6 z" /></g></g></g></g></g></g></svg>